<!-- Generated by IcoMoon.io -->
<svg version="1.1" xmlns="http://www.w3.org/2000/svg" width="31" height="32" viewBox="0 0 31 32">
<path d="M12.315 1.82h6.482c6.085 0 11.018 4.933 11.018 11.018v6.481c0 6.085-4.933 11.018-11.018 11.018h-6.482c-6.085 0-11.018-4.933-11.018-11.018v-6.482c0-6.085 4.933-11.018 11.018-11.018z"></path>
<path fill="none" stroke-linejoin="miter" stroke-linecap="butt" stroke-miterlimit="4" stroke-width="2.5926" stroke="#000" d="M12.315 1.82h6.482c6.085 0 11.018 4.933 11.018 11.018v6.481c0 6.085-4.933 11.018-11.018 11.018h-6.482c-6.085 0-11.018-4.933-11.018-11.018v-6.482c0-6.085 4.933-11.018 11.018-11.018z"></path>
<path fill="none" stroke-linejoin="miter" stroke-linecap="butt" stroke-miterlimit="4" stroke-width="2.5926" stroke="#000" d="M12.315 1.82h6.482c6.085 0 11.018 4.933 11.018 11.018v6.481c0 6.085-4.933 11.018-11.018 11.018h-6.482c-6.085 0-11.018-4.933-11.018-11.018v-6.482c0-6.085 4.933-11.018 11.018-11.018z"></path>
<path d="M22.903 11.403c-0.278-0.284-0.728-0.284-1.006 0l-8.52 8.701-3.275-3.344c-0.278-0.284-0.728-0.284-1.006 0s-0.278 0.743 0 1.027l3.778 3.858c0.278 0.284 0.728 0.283 1.006 0l9.022-9.214c0.278-0.284 0.278-0.743 0-1.027z"></path>
</svg>
