<!-- Generated by IcoMoon.io -->
<svg version="1.1" xmlns="http://www.w3.org/2000/svg" width="32" height="32" viewBox="0 0 32 32">
<path fill="none" stroke-linejoin="round" stroke-linecap="round" stroke-miterlimit="4" stroke-width="2.56" stroke="#000" d="M22.4 2.58h-12.8c-3.535 0-6.4 2.865-6.4 6.4v12.8c0 3.535 2.865 6.4 6.4 6.4h12.8c3.535 0 6.4-2.865 6.4-6.4v-12.8c0-3.535-2.865-6.4-6.4-6.4z"></path>
<path fill="none" stroke-linejoin="round" stroke-linecap="round" stroke-miterlimit="4" stroke-width="2.56" stroke="#000" d="M21.12 14.574c0.158 1.065-0.024 2.153-0.52 3.109s-1.281 1.731-2.243 2.215c-0.962 0.484-2.052 0.653-3.115 0.482s-2.046-0.673-2.807-1.435-1.264-1.744-1.435-2.807c-0.171-1.063-0.003-2.153 0.482-3.115s1.259-1.747 2.215-2.243c0.956-0.496 2.044-0.678 3.109-0.52 1.087 0.161 2.093 0.667 2.869 1.444s1.283 1.783 1.444 2.869z"></path>
<path fill="none" stroke-linejoin="round" stroke-linecap="round" stroke-miterlimit="4" stroke-width="2.56" stroke="#000" d="M23.040 8.34h0.013"></path>
</svg>
