<!-- Generated by IcoMoon.io -->
<svg version="1.1" xmlns="http://www.w3.org/2000/svg" width="32" height="32" viewBox="0 0 32 32">
<path d="M32 16c0 8.837-7.163 16-16 16s-16-7.163-16-16c0-8.837 7.163-16 16-16s16 7.163 16 16z"></path>
<path fill="none" stroke-linejoin="round" stroke-linecap="round" stroke-miterlimit="4" stroke-width="1.6" stroke="#000" d="M24.8 8.808c-0.766 0.54-1.614 0.954-2.512 1.224-0.482-0.554-1.122-0.947-1.834-1.125s-1.462-0.133-2.148 0.128c-0.686 0.262-1.275 0.728-1.687 1.335s-0.628 1.327-0.618 2.061v0.8c-1.406 0.036-2.799-0.275-4.055-0.908s-2.337-1.565-3.145-2.716c0 0-3.2 7.2 4 10.4-1.648 1.118-3.61 1.679-5.6 1.6 7.2 4 16 0 16-9.2-0.001-0.223-0.022-0.445-0.064-0.664 0.816-0.805 1.393-1.822 1.664-2.936v0z"></path>
</svg>
